# xmcd
#
# Track frame offsets:
#	150
#	19821
#	33722
#	49496
#	62065
#	75813
#	89861
#	103695
#	121238
#	132592
#	146686
#	156838
#	172024
#	184309
#	196768
#	207663
#	220265
#	230164
#	240627
#	249232
#	258872
#	269907
#	279584
#
# Disc length: 3856 seconds
#
# Revision: 0
# Processed by: cddbd v1.5.2PL0 Copyright (c) Steve Scherf et al.
# Submitted via: audiograbber 1.83.01
#
DISCID=670f0e17
DTITLE=John Lee Hooker - 16 Original Albums and Bonus Tracks, CD7: John Lee Hooke
DTITLE=r Plays And Sings The Blues - The Big Soul Of John Lee Hooker
DYEAR=1962
DGENRE=Blues
TTITLE0=The Journey
TTITLE1=I Don't Want Your Money
TTITLE2=Hey, Baby
TTITLE3=Mad Man Blues
TTITLE4=Bluebird
TTITLE5=Worried Life Blues
TTITLE6=Apologize
TTITLE7=Lonely Boy Boogie
TTITLE8=Please Don't Go
TTITLE9=Dreamin' Blues
TTITLE10=Hey Boogie
TTITLE11=Just Me And My Telephone
TTITLE12=San Francisco
TTITLE13=Take A Look At Yourself
TTITLE14=Send Me Your Pillow
TTITLE15=She Shot Me Down
TTITLE16=I Love Her
TTITLE17=Old Time Shimmy
TTITLE18=You Know I Love You
TTITLE19=Big Soul
TTITLE20=Good Rockin' Mama
TTITLE21=Onions
TTITLE22=No One Told Me
EXTD=Tracks 1-12: John Lee Hooker Plays And Sings The Blues\nTracks 13-23: The 
EXTD=Big Soul Of John Lee Hooker
EXTT0=
EXTT1=
EXTT2=
EXTT3=
EXTT4=
EXTT5=
EXTT6=
EXTT7=
EXTT8=
EXTT9=
EXTT10=
EXTT11=
EXTT12=
EXTT13=
EXTT14=
EXTT15=
EXTT16=
EXTT17=
EXTT18=
EXTT19=
EXTT20=
EXTT21=
EXTT22=
PLAYORDER=
